<svg xmlns="http://www.w3.org/2000/svg" viewBox="0 0 850 540" width="850" height="540">
  <rect width="850" height="540" rx="10" ry="10" fill="#1e1e2e"/>
  <path d="M0 10 C0 4.477 4.477 0 10 0 L840 0 C845.523 0 850 4.477 850 10 L850 36 L0 36 Z" fill="#181825"/>
  
  <circle cx="20" cy="18" r="6" fill="#f38ba8"/>
  <circle cx="40" cy="18" r="6" fill="#f9e2af"/>
  <circle cx="60" cy="18" r="6" fill="#a6e3a1"/>

  <g font-family="Menlo, Monaco, 'Courier New', monospace" font-size="14" fill="#cdd6f4">
    <text x="24" y="74"><tspan fill="#a6e3a1">&gt;</tspan> Explain the overall architecture of this project</text>

    <text x="24" y="114"><tspan fill="#89b4fa">⏺</tspan> brain-cache - build_context (MCP)</text>
    <text x="24" y="134">(query: "overall architecture of the project — folder structure,</text>
    <text x="24" y="154">entry points, services, workflows, MCP server, CLI", maxTokens: 8000)</text>

    <text x="24" y="194"><tspan fill="#89b4fa">⏺</tspan> brain-cache - build_context (MCP)</text>
    <text x="24" y="214">(query: "project structure workflows services tools CLI commands</text>
    <text x="24" y="234">MCP server tools registered", maxTokens: 10000)</text>

    <text x="24" y="274">  Searched for 1 pattern, read 5 files (ctrl+o to expand)</text>

    <text x="24" y="314"><tspan fill="#89b4fa">⏺</tspan> Here's the overall architecture:</text>
    <text x="24" y="344" fill="#6c7086">  ...</text>
    <text x="24" y="364" fill="#6c7086">  [ Architecture details truncated for brevity ]</text>
    <text x="24" y="384" fill="#6c7086">  ...</text>

    <text x="24" y="424">  ---</text>
    <text x="24" y="444">  🧠 brain-cache</text>
    <text x="24" y="464">  Tokens sent to Claude:     <tspan fill="#f9e2af">74</tspan></text>
    <text x="24" y="484">  Estimated without:         <tspan fill="#f9e2af">~2,795</tspan></text>
    <text x="24" y="504">  Reduction:                 <tspan fill="#a6e3a1">97%</tspan></text>
  </g>
</svg>
